# xmcd
#
# Track frame offsets: 
#        150
#        24717
#        34657
#        48092
#        61948
#        74279
#        88726
#        112577
#        129290
#        154939
#        172486
#        189061
#        204087
#        213414
#        274597
#        299224
#        325250
#
# Disc length: 4616 seconds
#
# Revision: 0
# Processed by: cddbd v1.4PL0 Copyright (c) Steve Scherf et al.
# Submitted via: ExactAudioCopy v0.90b4
#
DISCID=f1120611
DTITLE=Van Morrison - Live at the Scandinavium
DYEAR=1990
DGENRE=Celtic
TTITLE0=Brown Eyed Girl > Daring Night
TTITLE1=Here Comes The Night
TTITLE2=Orangefield
TTITLE3=Tore Down A La Rimbaud
TTITLE4=Jackie Wilson Said ...
TTITLE5=Domino
TTITLE6=It's All In The Game > Make It Real One More Time
TTITLE7=And It Stoned Me
TTITLE8=Sweet Thing
TTITLE9=Just Like A Woman
TTITLE10=Raglan Road
TTITLE11=Carrickfergus
TTITLE12=Full Force Gale
TTITLE13=Summertime In England
TTITLE14=Whenever God Shines His Light
TTITLE15=Caravan
TTITLE16=Moondance
EXTD=
EXTT0=
EXTT1=
EXTT2=
EXTT3=
EXTT4=
EXTT5=
EXTT6=
EXTT7=
EXTT8=
EXTT9=
EXTT10=
EXTT11=
EXTT12=
EXTT13=
EXTT14=
EXTT15=
EXTT16=
PLAYORDER=
